# xmcd CD database file
#
# Track frame offsets:
#	150
#	15450
#	31595
#	41870
#	52557
#	64980
#	74042
#	83990
#	102807
#	121427
#
# Disc length: 1830 seconds
#
# Revision: 0
# Processed by: cddbd v1.5.2PL0 Copyright (c) Steve Scherf et al.
# Submitted via: CDex 1.50Beta6
#
DISCID=7e07240a
DTITLE=ruzni - country
DYEAR=1900
DGENRE=Country
TTITLE0=Uz nas taborak vola
TTITLE1=Bila Kanada
TTITLE2=Po kolena v bahne
TTITLE3=Do Ameriky
TTITLE4=Horici prerie
TTITLE5=At zije kapitan
TTITLE6=Flamendr
TTITLE7=Ctirad a Sarka
TTITLE8=Tyrolak
TTITLE9=Hrozna cesta
EXTD=
EXTT0=
EXTT1=
EXTT2=
EXTT3=
EXTT4=
EXTT5=
EXTT6=
EXTT7=
EXTT8=
EXTT9=
PLAYORDER=
